<?xml version="1.0" encoding="UTF-8"?>
<svg id="Layer_1" xmlns="http://www.w3.org/2000/svg" version="1.1" viewBox="0 0 1781.6 330.7">
  <!-- Generator: Adobe Illustrator 30.1.0, SVG Export Plug-In . SVG Version: 2.1.1 Build 136)  -->
  <defs>
    <style>
      .st0 {
        fill: #652ac4;
      }
    </style>
  </defs>
  <path class="st0" d="M1766.2,224.7c-10.2-10.7-25.2-18.6-44.8-23.9l-29.4-7.5c-17.6-4.7-26.3-12.9-26.3-24.6s2.8-13.3,8.6-18c5.7-4.7,13.2-7,22.6-7s16.7,2.3,22.8,6.8c6.2,4.5,9.8,10.8,11,18.7h48.1s-.5-34-28.6-52.2c-15.4-10-33.1-14.9-55.1-14.9s-23.4,1.7-33.4,5-18.4,8-25.2,14c-6.9,6-12.2,13.2-15.8,21.5-3.7,8.3-5.5,17.3-5.5,27,0,14.9,4.8,27.7,14.3,38.4,9.5,10.7,25.2,19,47.2,24.8l29.8,7.9c15.5,4.1,22.5,11.9,23.3,23.3.7,11-8.4,25-30.6,25s-20.5-2.4-27.2-7.2-10.5-11.5-11.4-20h-48.5s0,32.9,27.2,52.4c14.9,10.7,34.9,16.5,60.3,16.5s42.9-5.7,59.3-18c15.4-11.6,22.6-28.1,22.6-48.3s-5.1-29-15.4-39.7"/>
  <path class="st0" d="M443.6,245.8c-3.8,11.1-16.3,36.4-54.8,36.4s-33-5.9-43.7-17.6c-10.7-11.7-16-28.2-16-49.3s5.3-37,16-49.3c10.7-12.3,25.2-18.5,43.7-18.5,37.8,0,50.6,26,54.4,37.7h49.3s-3.2-42.9-42.9-67.8c-15-9.4-34.4-16.5-61.7-16.5s-31.8,2.8-45.4,8.3c-13.6,5.6-25.2,13.3-34.9,23.3-9.7,10-17.2,21.9-22.4,36-5.2,14-7.8,29.7-7.8,47s2.7,32.5,8,46.5c5.4,14,12.8,26,22.4,36,9.6,10,21.2,17.7,34.7,23.3,13.6,5.5,28.6,8.8,44.9,8.3,96.5-3,105-83.8,105-83.8h-48.9,0Z"/>
  <polygon class="st0" points="217.1 131.9 173.5 162.7 193.8 220.7 142.8 184.4 91.6 220.7 142.7 74.8 162.7 131.8 216.8 131.8 171 5.4 74.2 5.4 106.9 28.5 0 324.1 55 324.1 81.4 249.3 203.8 249.3 229.7 324.1 286.6 324.1 217.1 131.9"/>
  <path class="st0" d="M713.3,192.3v131.8h-49.9v-119.7c0-10.5-1.2-19.3-3.7-26.4-2.5-7.1-5.9-12.8-10.3-17-4.4-4.2-9.5-7.3-15.3-9.2-5.8-1.9-12.1-2.8-18.8-2.8s-12.3,1.1-18.6,3.3c-6.3,2.2-12,5.5-17.3,10-5.2,4.5-9.5,10.3-12.7,17.5-3.2,7.1-4.8,15.7-4.8,25.6v118.8h-51.6V0h51.6v131c6.7-8.6,15.6-15.5,26.8-20.7s23.5-7.8,36.8-7.8c28.2,0,50,7.7,65.6,23.1,15.5,15.4,23.3,37.9,23.3,67.5"/>
  <path class="st0" d="M736.6,34.6c0-9.3,3.2-17.1,9.6-23.3,6.4-6.2,14.1-9.4,23.1-9.4s16.6,3.2,22.9,9.6c6.2,6.4,9.4,14.1,9.4,23.1s-3.1,16.7-9.4,23.1-13.9,9.6-22.9,9.6-16.7-3.2-23.1-9.6c-6.4-6.4-9.6-14.1-9.6-23.1M795.2,324.1h-51.6V108.6h51.6v215.5Z"/>
  <polygon class="st0" points="1248.5 108.6 1158.5 324.1 1107.3 324.1 1021.2 108.6 1077.2 108.6 1134 262.9 1194.7 108.6 1248.5 108.6"/>
  <path class="st0" d="M1578.4,106c9.6,0,18,1,25.3,3v47.3c-7.9-2-15.9-3.1-24.1-3.1-18.4,0-32.6,5.7-42.7,17.1-10.1,11.4-15.1,27.2-15.1,47.3v106.4h-51.6V108.6h47.2l3.1,25.3c4.4-9.3,11.8-16.3,22.2-21.1,10.5-4.8,22.2-7.2,35.3-7.2"/>
  <path class="st0" d="M1030.3,216.2c0-17.1-2.5-32.7-7.6-46.6-5.1-13.9-12.2-25.8-21.3-35.7-9.2-9.9-20.3-17.6-33.3-23.1-13.1-5.5-27.4-8.3-43.1-8.3s-30.7,2.8-44,8.3c-13.4,5.5-24.8,13.3-34.2,23.3-9.4,10-16.8,22.1-22,36.2-5.2,14.1-7.8,29.6-7.8,46.4s2.6,32.2,7.8,46.2,12.6,25.9,22,35.7c9.4,9.9,20.8,17.5,34,22.9,13.2,5.4,27.7,8.1,43.3,8.1,22.7,0,42.8-4.9,59.9-15.7,39.6-24.9,44.1-61.4,44.1-61h-49.1c-4.9,10-12.1,18-21.3,23.7-9.3,5.7-20.5,8.5-33.6,8.5s-28.9-4.1-39.7-12.4-17-20.7-18.7-37.6h164.7v-18.8h0ZM866.5,199.5c2-17.3,8.1-30.5,18.1-39.5,10-9.1,23-13.6,39-13.6s28.8,4.5,38.3,13.4,15,22.2,16.1,39.8h-111.5,0Z"/>
  <path class="st0" d="M1450.6,216.2c-.2-17.1-2.8-32.7-7.8-46.6-5.1-13.9-12.2-25.8-21.3-35.7-9.2-9.9-20.3-17.6-33.3-23.1-13.1-5.5-27.4-8.3-43.1-8.3s-30.7,2.8-44,8.3c-13.4,5.5-24.8,13.3-34.2,23.3-9.4,10-16.8,22.1-22,36.2-5.2,14.1-7.8,29.6-7.8,46.4s2.6,32.2,7.8,46.2c5.2,13.9,12.6,25.9,22,35.7,9.4,9.9,20.8,17.5,34,22.9s27.7,8.1,43.3,8.1c22.7,0,42.8-4.9,59.9-15.7,39.6-24.9,44.1-61.4,44.1-61h-49.1c-4.9,10-12.1,18-21.3,23.7-9.3,5.7-20.5,8.5-33.6,8.5s-28.9-4.1-39.7-12.4-17-20.7-18.7-37.6h164.9v-18.8h0ZM1286.5,199.5c2-17.3,8.1-30.5,18.1-39.5,10-9.1,23-13.6,39-13.6s28.8,4.5,38.3,13.4c9.6,8.9,15,22.2,16.1,39.8h-111.5,0Z"/>
</svg>