<?xml version="1.0" encoding="UTF-8"?>
<svg id="Layer_1" data-name="Layer 1" xmlns="http://www.w3.org/2000/svg" viewBox="0 0 2298 773">
  <defs>
    <style>
      .cls-1 {
        fill: #652ac4;
      }
    </style>
  </defs>
  <path class="cls-1" d="M2024.44,445.85c-10.24-10.68-25.17-18.65-44.76-23.92l-29.41-7.46c-17.55-4.68-26.33-12.87-26.33-24.58,0-7.31,2.85-13.31,8.55-18,5.71-4.68,13.24-7.02,22.61-7.02s16.68,2.27,22.82,6.8c6.15,4.54,9.8,10.75,10.97,18.66h48.13s-.54-33.96-28.6-52.23c-15.43-10.04-33.14-14.92-55.08-14.92-12.29,0-23.41,1.68-33.36,5.05-9.95,3.37-18.36,8.05-25.23,14.04-6.88,6-12.15,13.17-15.8,21.5-3.66,8.34-5.49,17.34-5.49,26.99,0,14.92,4.75,27.73,14.27,38.4,9.5,10.68,25.24,18.95,47.18,24.8l29.84,7.9c15.5,4.1,22.53,11.88,23.26,23.26.71,10.96-8.4,25.02-30.55,25.02-11.41,0-20.48-2.41-27.21-7.24-6.73-4.83-10.53-11.48-11.41-19.97h-48.46s0,32.93,27.18,52.45c14.95,10.73,34.89,16.46,60.35,16.46,27.21,0,42.95-5.71,59.3-18,15.39-11.57,22.6-28.09,22.6-48.28,0-15.8-5.12-29.04-15.36-39.72"/>
  <path class="cls-1" d="M701.83,466.91c-3.8,11.12-16.31,36.42-54.85,36.42-18.43,0-32.98-5.86-43.66-17.6-10.68-11.73-16.02-28.18-16.02-49.31s5.34-36.97,16.02-49.3c10.67-12.32,25.23-18.49,43.66-18.49,37.81,0,50.6,26.03,54.41,37.73h49.33s-3.19-42.85-42.92-67.75c-15.03-9.42-34.38-16.49-61.7-16.49-16.67,0-31.8,2.78-45.38,8.33-13.58,5.56-25.23,13.32-34.94,23.26-9.72,9.95-17.19,21.94-22.41,35.97-5.22,14.04-7.83,29.7-7.83,46.95s2.68,32.47,8.05,46.51c5.36,14.04,12.84,26.04,22.41,35.98,9.57,9.95,21.15,17.7,34.73,23.26,13.58,5.55,28.57,8.85,44.94,8.34,96.49-3.03,105.05-83.8,105.05-83.8h-48.89Z"/>
  <polygon class="cls-1" points="475.31 353 431.7 383.86 452.01 441.82 401.01 405.57 349.77 441.82 400.89 295.98 420.86 352.94 474.96 352.94 429.24 226.5 332.39 226.5 365.11 249.65 258.2 545.27 313.24 545.27 339.64 470.47 461.95 470.47 487.91 545.27 544.85 545.27 475.31 353"/>
  <path class="cls-1" d="M971.49,413.49v131.78h-49.86v-119.68c0-10.47-1.24-19.28-3.72-26.42-2.48-7.13-5.91-12.81-10.29-17.04-4.37-4.22-9.48-7.28-15.31-9.17-5.84-1.9-12.11-2.84-18.82-2.84-6.12,0-12.32,1.1-18.59,3.27-6.28,2.19-12.03,5.54-17.28,10.05-5.25,4.52-9.48,10.34-12.69,17.47-3.21,7.14-4.81,15.66-4.81,25.56v118.8h-51.64V221.15h51.64v131.02c6.68-8.63,15.61-15.53,26.79-20.71,11.18-5.18,23.45-7.77,36.82-7.77,28.17,0,50.03,7.7,65.57,23.09,15.53,15.4,23.3,37.9,23.3,67.53"/>
  <path class="cls-1" d="M994.84,255.71c0-9.29,3.19-17.06,9.59-23.3,6.39-6.24,14.08-9.37,23.09-9.37s16.62,3.2,22.87,9.59c6.24,6.39,9.37,14.1,9.37,23.09s-3.12,16.71-9.37,23.1c-6.25,6.39-13.87,9.58-22.87,9.58s-16.7-3.19-23.09-9.58c-6.4-6.39-9.59-14.09-9.59-23.1M1053.41,545.27h-51.64v-215.48h51.64v215.48Z"/>
  <polygon class="cls-1" points="1506.7 329.79 1416.66 545.27 1365.52 545.27 1279.41 329.79 1335.37 329.79 1392.19 484.08 1452.94 329.79 1506.7 329.79"/>
  <path class="cls-1" d="M1836.64,327.17c9.59,0,18.01,1.02,25.27,3.05v47.33c-7.89-2.04-15.92-3.07-24.1-3.07-18.39,0-32.63,5.7-42.71,17.08-10.07,11.39-15.11,27.16-15.11,47.31v106.39h-51.64v-215.48h47.25l3.05,25.27c4.36-9.29,11.77-16.34,22.22-21.13,10.46-4.8,22.22-7.19,35.29-7.19"/>
  <path class="cls-1" d="M1288.48,437.4c0-17.13-2.54-32.68-7.62-46.62-5.09-13.94-12.2-25.84-21.35-35.72-9.15-9.87-20.26-17.57-33.33-23.1-13.07-5.51-27.45-8.27-43.14-8.27s-30.65,2.76-44,8.27c-13.37,5.52-24.77,13.29-34.2,23.31-9.45,10.02-16.78,22.08-22,36.17-5.23,14.09-7.84,29.56-7.84,46.4s2.61,32.24,7.84,46.18c5.23,13.94,12.56,25.86,22,35.73,9.43,9.88,20.76,17.5,33.98,22.87,13.21,5.37,27.67,8.06,43.35,8.06,22.65,0,42.8-4.93,59.91-15.69,39.62-24.91,44.07-61.43,44.07-60.95h-49.08c-4.94,9.98-12.06,18.04-21.35,23.71-9.29,5.66-20.48,8.49-33.55,8.49-15.68,0-28.9-4.13-39.65-12.41-10.75-8.28-16.99-20.7-18.73-37.59h164.68v-18.83ZM1124.67,420.61c2.03-17.29,8.06-30.46,18.08-39.54,10.02-9.07,23.02-13.61,38.99-13.61s28.76,4.47,38.34,13.4c9.58,8.93,14.96,22.19,16.12,39.76h-111.53Z"/>
  <path class="cls-1" d="M1708.76,437.4c-.22-17.13-2.76-32.68-7.84-46.62-5.09-13.94-12.2-25.84-21.35-35.72-9.15-9.87-20.26-17.57-33.33-23.1-13.08-5.51-27.45-8.27-43.14-8.27s-30.65,2.76-44,8.27c-13.37,5.52-24.77,13.29-34.2,23.31-9.45,10.02-16.78,22.08-22,36.17-5.23,14.09-7.84,29.56-7.84,46.4s2.61,32.24,7.84,46.18c5.22,13.94,12.56,25.86,22,35.73,9.43,9.88,20.76,17.5,33.98,22.87,13.22,5.37,27.67,8.06,43.35,8.06,22.65,0,42.8-4.93,59.91-15.69,39.62-24.91,44.07-61.43,44.07-60.95h-49.08c-4.94,9.98-12.06,18.04-21.35,23.71-9.29,5.66-20.48,8.49-33.55,8.49-15.68,0-28.9-4.13-39.65-12.41-10.75-8.28-16.99-20.7-18.73-37.59h164.91v-18.83ZM1544.73,420.61c2.03-17.29,8.06-30.46,18.08-39.54,10.02-9.07,23.02-13.61,38.99-13.61s28.76,4.47,38.34,13.4c9.59,8.93,14.96,22.19,16.12,39.76h-111.54Z"/>
</svg>