<?xml version="1.0" encoding="UTF-8"?>
<svg id="Layer_2" data-name="Layer 2" xmlns="http://www.w3.org/2000/svg" xmlns:xlink="http://www.w3.org/1999/xlink" viewBox="0 0 503.94 266">
  <defs>
    <style>
      .cls-1, .cls-2 {
        fill: #323e48;
      }

      .cls-3 {
        fill: url(#linear-gradient);
      }

      .cls-3, .cls-2 {
        fill-rule: evenodd;
      }
    </style>
    <linearGradient id="linear-gradient" x1="241.78" y1="36.56" x2="241.78" y2="191.19" gradientUnits="userSpaceOnUse">
      <stop offset="0" stop-color="#00a0dd"/>
      <stop offset="1" stop-color="#9a2890"/>
    </linearGradient>
  </defs>
  <g id="Layer_1-2" data-name="Layer 1">
    <path class="cls-3" d="M299.59,92.25c.1-3.9,1.64-7.62,4.31-10.44,2.59-2.16,4.24-5.41,4.24-9.05,0-6.51-5.27-11.78-11.78-11.78s-11.78,5.28-11.78,11.78c0,3.64,1.65,6.89,4.24,9.05,2.67,2.82,4.21,6.54,4.31,10.44v8.52c-.03,3.75-1.21,7.41-3.37,10.48h0c-1.05,1.39-1.68,3.12-1.68,5,0,4.57,3.71,8.28,8.28,8.28s8.28-3.71,8.28-8.28c0-1.88-.62-3.61-1.68-5h0c-2.16-3.08-3.33-6.73-3.37-10.49v-8.52h0ZM346.85,120.16c-3.76,0-6.8-3.04-6.8-6.8s3.04-6.8,6.8-6.8,6.8,3.04,6.8,6.8-3.04,6.8-6.8,6.8h0ZM260.93,57.97l-.07-.06c3,2.58,4.78,6.27,4.94,10.19v6.9c-.08,4.46-1.69,8.75-4.56,12.15l.09-.09c-2.07,2.13-3.34,5.04-3.34,8.24,0,4.11,2.09,7.73,5.26,9.85l-.11-.08c2.47,2.01,3.94,5,4,8.2v21.85c-.04,2.99-.98,5.9-2.69,8.35-1.12,1.28-1.79,2.95-1.79,4.78,0,4.01,3.26,7.27,7.27,7.27s7.27-3.26,7.27-7.27c0-1.86-.7-3.56-1.85-4.85-1.82-2.03-2.66-4.85-2.83-7.55v-22.58c.07-3.19,1.54-6.19,4.01-8.2l-.11.08c3.17-2.13,5.26-5.75,5.26-9.85,0-2.91-1.04-5.56-2.78-7.62-3.15-3.86-4.92-8.65-5.03-13.62v-7.44c.1-3.2,1.64-6.19,4.2-8.13l-.18.13c3.59-2.54,5.94-6.72,5.94-11.45,0-7.73-6.27-14-14-14s-14,6.27-14,14c0,4.35,1.98,8.23,5.09,10.8h0ZM250.28,34.43l-.23.14c5.45-3.24,9.1-9.18,9.1-15.98,0-10.26-8.32-18.58-18.58-18.58s-18.58,8.32-18.58,18.58c0,5.31,2.23,10.1,5.8,13.49,1.76,1.67,3.62,2.57,5.25,4.49,2.74,3.23,3.09,6.53,3.09,10.73,0,1.96.07,2.81-.31,4.75-.7,3.59-2.36,6.49-5.25,9.45-2.45,2.51-3.87,6.12-3.87,9.61,0,4.86,2.51,9.14,6.3,11.62,2.6,1.86,4.26,4.72,4.63,7.83v16.36c-.41,3.12-1.65,6.1-3.62,8.61l.08-.09c-1.41,1.55-2.27,3.62-2.27,5.88,0,2.96,1.47,5.58,3.72,7.16,1.76,1.84,2.79,4.24,2.92,6.76v20.43c-.23,2.91-1.16,5.74-2.72,8.22l.07-.08c-.95,1.1-1.52,2.54-1.52,4.1,0,3.47,2.81,6.29,6.29,6.29s6.29-2.82,6.29-6.29c0-1.55-.56-2.97-1.5-4.07-1.52-2.44-2.44-5.2-2.68-8.05v-20.54c.13-2.52,1.16-4.92,2.92-6.76l-.12.08c2.32-1.57,3.84-4.23,3.84-7.25,0-2.18-.8-4.17-2.11-5.7l.05.05c-2.36-3.46-3.66-7.54-3.75-11.71v-13.4c.38-3.11,2.03-5.96,4.63-7.83,3.79-2.47,6.3-6.75,6.3-11.62,0-4.1-1.78-7.79-4.61-10.32,0,0-4.36-4.41-4.82-11.02,0-6.23-.14-10.83,5.27-15.33h0ZM202.77,57.97c-3.11-2.57-5.09-6.45-5.09-10.8,0-7.73,6.27-14,14-14s14,6.27,14,14c0,4.73-2.35,8.92-5.94,11.45l.18-.13c-2.56,1.94-4.1,4.94-4.2,8.13v7.44c.11,4.96,1.88,9.76,5.03,13.62,1.74,2.06,2.78,4.72,2.78,7.62,0,4.11-2.09,7.73-5.26,9.85l.11-.08c-2.47,2.01-3.94,5-4.01,8.2v22.58c.17,2.7,1.01,5.53,2.83,7.55,1.15,1.29,1.85,2.99,1.85,4.85,0,4.01-3.26,7.27-7.27,7.27s-7.27-3.26-7.27-7.27c0-1.83.67-3.5,1.79-4.78,1.71-2.45,2.64-5.36,2.69-8.35v-21.85c-.07-3.19-1.54-6.19-4.01-8.2l.11.08c-3.17-2.13-5.26-5.75-5.26-9.85,0-3.21,1.27-6.11,3.34-8.24l-.09.09c2.87-3.4,4.49-7.69,4.56-12.15v-6.9c-.17-3.92-1.95-7.62-4.94-10.19l.07.06h0ZM161.49,104.28c.07-2.52,1.06-4.92,2.78-6.74,1.67-1.39,2.74-3.49,2.74-5.84,0-4.2-3.41-7.61-7.61-7.61s-7.61,3.4-7.61,7.61c0,2.35,1.06,4.45,2.74,5.84,1.72,1.82,2.72,4.22,2.79,6.74v23.14c-.02,2.42-.78,4.78-2.18,6.77h0c-.68.9-1.08,1.15-1.08,3.23s2.39,5.35,5.35,5.35,5.35-3.26,5.35-5.35-.4-2.33-1.08-3.23h0c-1.4-1.99-2.15-4.35-2.18-6.77v-23.14h0ZM136.71,120.16c-3.75,0-6.8-3.04-6.8-6.8s3.04-6.8,6.8-6.8,6.8,3.04,6.8,6.8-3.04,6.8-6.8,6.8h0ZM188.49,92.25c.1-3.9,1.64-7.62,4.31-10.44,2.59-2.16,4.24-5.41,4.24-9.05,0-6.51-5.27-11.78-11.78-11.78s-11.78,5.28-11.78,11.78c0,3.64,1.65,6.89,4.24,9.05,2.67,2.82,4.21,6.54,4.31,10.44v8.52c-.03,3.75-1.21,7.41-3.37,10.48h0c-1.05,1.39-1.68,3.12-1.68,5,0,4.57,3.71,8.28,8.28,8.28s8.28-3.71,8.28-8.28c0-1.88-.63-3.61-1.68-5h0c-2.16-3.08-3.33-6.73-3.37-10.49v-8.52h0ZM185.24,168.97c-2.42,0-4.38-1.96-4.38-4.38s1.96-4.38,4.38-4.38,4.38,1.96,4.38,4.38-1.96,4.38-4.38,4.38h0ZM324.57,104.28c.07-2.52,1.06-4.92,2.78-6.74,1.67-1.39,2.74-3.49,2.74-5.84,0-4.2-3.41-7.61-7.61-7.61s-7.61,3.4-7.61,7.61c0,2.35,1.06,4.45,2.74,5.84,1.72,1.82,2.72,4.22,2.78,6.74v23.14c-.02,2.42-.78,4.78-2.17,6.77h0c-.68.9-1.08,1.15-1.08,3.23s2.39,5.35,5.35,5.35,5.35-3.26,5.35-5.35-.4-2.33-1.08-3.23h0c-1.4-1.99-2.15-4.35-2.18-6.77v-23.14h0ZM296.15,169.92c-2.42,0-4.38-1.96-4.38-4.38s1.96-4.38,4.38-4.38,4.38,1.96,4.38,4.38-1.96,4.38-4.38,4.38Z"/>
    <g>
      <path class="cls-2" d="M403.44,211.94v47.12h5.32v-47.12h-5.32ZM455.82,204.67h-6.44l-27.75,61.33h7.05l7.22-16.09h33.14l7.13,16.09h7.39l-27.75-61.33h0ZM466.34,243.82h-27.75l13.92-31.06,13.83,31.06h0ZM34.19,204.67h-6.44L0,266h7.05l7.22-16.09h33.14l7.13,16.09h7.39l-27.75-61.33h0ZM44.71,243.82h-27.75l13.92-31.06,13.83,31.06h0ZM111.16,211.94h-5.32v27.4c0,5.16-1.28,9.04-3.84,11.65-2.56,2.6-6.01,3.9-10.37,3.9s-8.07-1.37-10.6-4.11c-2.54-2.74-3.8-6.66-3.8-11.78v-27.06h-5.32v27.4c0,3.32.47,6.26,1.41,8.82.94,2.56,2.28,4.7,4.01,6.43,1.73,1.73,3.79,3.03,6.19,3.9,2.4.88,5.06,1.31,7.98,1.31s5.64-.44,8.04-1.31c2.4-.87,4.46-2.19,6.19-3.94,1.73-1.75,3.06-3.93,4.01-6.53.94-2.6,1.41-5.63,1.41-9.09v-26.99h0ZM175.27,235.44c0-3.32-.61-6.42-1.82-9.29-1.21-2.87-2.93-5.36-5.15-7.47-2.22-2.11-4.87-3.76-7.94-4.95-3.07-1.19-6.45-1.78-10.13-1.78h-16.36v47.12h16.36c3.68,0,7.06-.61,10.13-1.82,3.07-1.21,5.72-2.87,7.94-4.98,2.22-2.11,3.94-4.61,5.15-7.51,1.21-2.9,1.82-6,1.82-9.32h0ZM169.75,235.57c0,2.65-.46,5.09-1.38,7.34-.92,2.24-2.22,4.21-3.9,5.89-1.68,1.68-3.74,3-6.16,3.94-2.42.94-5.12,1.41-8.08,1.41h-11.04v-37.29h11.04c2.96,0,5.65.48,8.08,1.45,2.42.96,4.48,2.29,6.16,3.97,1.68,1.68,2.98,3.67,3.9,5.96.92,2.29,1.38,4.73,1.38,7.34h0ZM197.1,211.94v47.12h5.32v-47.12h-5.32ZM244.1,216.86h15.82v-4.91h-36.96v4.91h15.82v42.21h5.32v-42.21h0ZM322.82,235.44c0-3.28-.57-6.38-1.72-9.32-1.14-2.94-2.77-5.52-4.88-7.74-2.11-2.22-4.63-3.98-7.57-5.28-2.94-1.3-6.2-1.95-9.79-1.95s-6.87.66-9.83,1.99c-2.96,1.32-5.5,3.11-7.61,5.35-2.11,2.24-3.75,4.84-4.91,7.77-1.17,2.94-1.75,6.05-1.75,9.32s.57,6.38,1.72,9.32c1.14,2.94,2.77,5.52,4.88,7.74,2.11,2.22,4.63,3.98,7.57,5.28,2.94,1.3,6.2,1.95,9.79,1.95s6.87-.66,9.83-1.99c2.96-1.32,5.5-3.11,7.61-5.35,2.11-2.24,3.75-4.84,4.91-7.77,1.17-2.94,1.75-6.05,1.75-9.32h0ZM317.3,235.57c0,2.69-.46,5.22-1.38,7.57-.92,2.36-2.19,4.41-3.8,6.16-1.62,1.75-3.56,3.13-5.82,4.14-2.27,1.01-4.75,1.51-7.44,1.51s-5.17-.52-7.44-1.55c-2.27-1.03-4.23-2.42-5.89-4.17-1.66-1.75-2.95-3.81-3.87-6.19-.92-2.38-1.38-4.91-1.38-7.61s.46-5.22,1.38-7.57c.92-2.36,2.19-4.41,3.8-6.16,1.62-1.75,3.56-3.13,5.82-4.14s4.75-1.51,7.44-1.51,5.17.52,7.44,1.55c2.27,1.03,4.23,2.42,5.89,4.17,1.66,1.75,2.95,3.81,3.87,6.19.92,2.38,1.38,4.91,1.38,7.61h0ZM383.15,259.06l-14.47-19.24c1.84-.31,3.55-.85,5.12-1.62,1.57-.76,2.93-1.72,4.07-2.86,1.14-1.14,2.03-2.49,2.66-4.04.63-1.55.94-3.31.94-5.28,0-2.11-.4-4.04-1.21-5.77-.81-1.73-1.95-3.21-3.43-4.44-1.48-1.23-3.26-2.19-5.35-2.86-2.09-.67-4.43-1.01-7.03-1.01h-20.26v47.12h5.32v-18.31h13.46l13.66,18.31h6.53ZM376.15,226.25c0,1.53-.3,2.91-.91,4.12-.61,1.22-1.45,2.24-2.54,3.07-1.08.83-2.36,1.48-3.85,1.93-1.48.45-3.1.67-4.86.67h-14.51v-19.18h14.57c3.83,0,6.8.82,8.91,2.47,2.12,1.64,3.17,3.95,3.17,6.92Z"/>
      <path class="cls-1" d="M499.02,256.14c.83,0,1.63.21,2.42.64.79.42,1.4,1.03,1.84,1.82.44.79.66,1.61.66,2.47s-.22,1.67-.65,2.45c-.43.78-1.04,1.39-1.82,1.83-.78.43-1.6.65-2.45.65s-1.67-.22-2.45-.65-1.39-1.04-1.83-1.83c-.44-.78-.65-1.6-.65-2.45s.22-1.68.66-2.47,1.06-1.4,1.85-1.82c.79-.42,1.6-.64,2.42-.64ZM499.02,256.96c-.69,0-1.37.18-2.02.53-.66.36-1.17.86-1.54,1.52-.37.66-.56,1.35-.56,2.06s.18,1.39.55,2.04c.36.65.87,1.16,1.53,1.52.65.36,1.33.55,2.04.55s1.39-.18,2.04-.55c.65-.36,1.16-.87,1.52-1.52s.54-1.33.54-2.04-.18-1.4-.55-2.06-.88-1.17-1.54-1.52c-.66-.35-1.33-.53-2.02-.53ZM496.85,263.8v-5.3h1.82c.62,0,1.07.05,1.35.15.28.1.5.27.67.51.17.24.25.5.25.78,0,.39-.14.73-.41,1.01s-.64.45-1.1.48c.19.08.34.17.45.28.21.21.47.56.78,1.05l.65,1.04h-1.05l-.47-.84c-.37-.66-.67-1.07-.9-1.23-.16-.12-.39-.18-.69-.18h-.5v2.25h-.86ZM497.71,260.81h1.04c.5,0,.83-.07,1.02-.22.18-.15.27-.34.27-.59,0-.16-.04-.3-.13-.42-.09-.12-.21-.22-.36-.28s-.44-.09-.86-.09h-.97v1.6Z"/>
    </g>
  </g>
</svg>