<?xml version="1.0" encoding="UTF-8"?>
<svg id="Layer_2" xmlns="http://www.w3.org/2000/svg" xmlns:xlink="http://www.w3.org/1999/xlink" version="1.1" viewBox="0 0 608.9 163.3">
  <!-- Generator: Adobe Illustrator 30.1.0, SVG Export Plug-In . SVG Version: 2.1.1 Build 136)  -->
  <defs>
    <style>
      .st0 {
        fill: #202d52;
      }

      .st1 {
        fill: url(#radial-gradient);
      }
    </style>
    <radialGradient id="radial-gradient" cx="420.2" cy="102.6" fx="420.2" fy="102.6" r="100.2" gradientTransform="translate(0 142) scale(1 -1)" gradientUnits="userSpaceOnUse">
      <stop offset="0" stop-color="#c0d01a"/>
      <stop offset=".1" stop-color="#a9c91e"/>
      <stop offset=".4" stop-color="#6fb829"/>
      <stop offset=".8" stop-color="#139c3b"/>
      <stop offset=".9" stop-color="#00973f"/>
    </radialGradient>
  </defs>
  <g id="Layer_1-2">
    <g>
      <g>
        <path class="st0" d="M89,91.2c0-28.2,19.6-49.2,45.5-49.2s26.4,6.5,33,18.2v-15.9h17.4v93.6h-17.4v-15.9c-6.5,11.7-17.6,18.2-33,18.2-25.9,0-45.5-21.1-45.5-48.9h0ZM168.1,91.2c0-19.9-11.9-33.8-30.1-33.8s-30.7,13.9-30.7,33.8,12.2,33.6,30.7,33.6,30.1-13.9,30.1-33.6Z"/>
        <path class="st0" d="M214.5,44.2h17.6v93.6h-17.6V44.2Z"/>
        <path class="st0" d="M211.3,22.2c0-6.8,5.7-11.9,11.9-11.9s11.9,5.1,11.9,11.9-5.7,11.9-11.9,11.9-11.9-5.1-11.9-11.9Z"/>
        <path class="st0" d="M261.7,44.2h17.4v15.1c6-11.4,17.9-17.4,32.1-17.4,20.5,0,35.8,13.1,35.8,38.4v57.5h-17.4v-55.8c0-16.5-8-24.5-22.8-24.5s-27.9,10.5-27.9,28.5v51.8h-17.4V44.2h0Z"/>
        <path class="st0" d="M482.4,119l12.5-8.8c5.7,9.4,15.1,15.1,27.6,15.1s18.8-4.8,18.8-12.5-6.5-11.7-22.8-16.2c-18.5-5.1-29.6-12.2-29.6-28.7s12.2-25.9,30.7-25.9,24.8,5.4,32.1,15.1l-11.7,9.7c-4.5-6-10.5-10-20.2-10s-14.8,4.5-14.8,10.5,6,10.5,20.5,14.2c19.9,5.1,32.4,13.4,32.4,30.4s-13.4,28.2-35.6,28.2-31.6-8-40.1-21.1h0Z"/>
      </g>
      <polygon class="st0" points="0 0 0 137.7 17.4 137.7 17.4 97.6 58.9 137.7 82.2 137.7 34.4 91.2 82.2 44.1 58.9 44.1 17.4 84.2 17.4 0 0 0"/>
      <path class="st1" d="M369.3,88.9c0-28.1,22.8-50.9,50.9-50.9s50.9,22.8,50.9,50.9-22.8,50.9-50.9,50.9-50.9-22.8-50.9-50.9Z"/>
      <g>
        <path class="st0" d="M593.6,52c.7,0,1.2.1,1.8.3.5.2,1,.5,1.3.9.4.4.7.8.9,1.3.2.5.3,1,.3,1.6,0,.9-.2,1.6-.5,2.2s-1,1.1-1.8,1.4h0c.4.2.7.3,1,.5s.5.5.6.8c.2.3.3.6.4,1,0,.4.1.7.2,1.1,0,.2,0,.5,0,.8,0,.3,0,.6,0,1s0,.6.2.9c0,.3.2.5.3.8h-3.2c-.2-.5-.3-1-.3-1.7,0-.6,0-1.2-.2-1.8-.1-.8-.3-1.3-.7-1.7s-.9-.5-1.7-.5h-3.2v5.7h-3.2v-14.6h7.9ZM592.5,58.5c.7,0,1.3-.2,1.7-.5.4-.3.5-.9.5-1.6s-.2-1.2-.5-1.5-.9-.5-1.7-.5h-3.5v4.1h3.5Z"/>
        <path class="st0" d="M591.4,76.8c-9.7,0-17.5-7.9-17.5-17.5s7.9-17.5,17.5-17.5,17.5,7.9,17.5,17.5-7.9,17.5-17.5,17.5ZM591.4,45.5c-7.6,0-13.8,6.2-13.8,13.8s6.2,13.8,13.8,13.8,13.8-6.2,13.8-13.8-6.2-13.8-13.8-13.8Z"/>
      </g>
    </g>
  </g>
</svg>