<?xml version="1.0" encoding="UTF-8"?>
<svg id="Layer_2" data-name="Layer 2" xmlns="http://www.w3.org/2000/svg" xmlns:xlink="http://www.w3.org/1999/xlink" viewBox="0 0 608.94 140.08">
  <defs>
    <style>
      .cls-1 {
        fill: #202d52;
      }

      .cls-2 {
        fill: url(#radial-gradient);
      }
    </style>
    <radialGradient id="radial-gradient" cx="420.19" cy="39.4" fx="420.19" fy="39.4" r="100.24" gradientUnits="userSpaceOnUse">
      <stop offset="0" stop-color="#c0d01a"/>
      <stop offset=".13" stop-color="#a9c91e"/>
      <stop offset=".4" stop-color="#6fb829"/>
      <stop offset=".78" stop-color="#139c3b"/>
      <stop offset=".86" stop-color="#00973f"/>
    </radialGradient>
  </defs>
  <g id="Layer_1-2" data-name="Layer 1">
    <g>
      <g>
        <path class="cls-1" d="M89.03,91.15c0-28.16,19.63-49.21,45.51-49.21,15.36,0,26.45,6.54,33,18.21v-15.93h17.35v93.59h-17.35v-15.93c-6.54,11.66-17.64,18.21-33,18.21-25.89,0-45.51-21.05-45.51-48.93ZM168.11,91.15c0-19.91-11.95-33.85-30.15-33.85s-30.72,13.94-30.72,33.85,12.23,33.57,30.72,33.57,30.15-13.94,30.15-33.57Z"/>
        <path class="cls-1" d="M214.47,44.21h17.63v93.59h-17.63V44.21Z"/>
        <path class="cls-1" d="M211.34,22.21c0-6.83,5.69-11.95,11.95-11.95s11.95,5.12,11.95,11.95-5.69,11.94-11.95,11.94-11.95-5.12-11.95-11.94Z"/>
        <path class="cls-1" d="M261.68,44.21h17.35v15.08c5.97-11.38,17.92-17.36,32.14-17.36,20.48,0,35.84,13.08,35.84,38.41v57.46h-17.35v-55.76c0-16.5-7.96-24.46-22.76-24.46-16.78,0-27.88,10.52-27.88,28.45v51.77h-17.35V44.21Z"/>
        <path class="cls-1" d="M482.39,119.03l12.51-8.82c5.69,9.39,15.08,15.07,27.59,15.07s18.77-4.83,18.77-12.52c0-8.25-6.54-11.66-22.76-16.22-18.49-5.12-29.58-12.23-29.58-28.73,0-15.36,12.23-25.89,30.72-25.89,14.79,0,24.75,5.41,32.14,15.08l-11.66,9.67c-4.55-5.97-10.52-9.95-20.19-9.95s-14.79,4.55-14.79,10.53c0,8.25,5.97,10.52,20.48,14.22,19.91,5.12,32.43,13.37,32.43,30.44s-13.37,28.16-35.56,28.16c-17.92,0-31.58-7.96-40.11-21.05Z"/>
      </g>
      <polygon class="cls-1" points="0 0 0 137.67 17.35 137.67 17.35 97.55 58.88 137.67 82.21 137.67 34.42 91.2 82.21 44.06 58.93 44.06 17.35 84.2 17.35 0 0 0"/>
      <path class="cls-2" d="M369.26,88.86c0-28.13,22.81-50.94,50.94-50.94,28.14,0,50.94,22.81,50.94,50.94,0,28.13-22.8,50.94-50.94,50.94-28.13,0-50.94-22.81-50.94-50.94Z"/>
      <g>
        <path class="cls-1" d="M593.6,51.96c.65,0,1.24.11,1.77.32.52.21.97.5,1.35.87.37.37.66.79.86,1.28.2.48.3,1,.3,1.56,0,.86-.18,1.6-.54,2.23-.36.63-.95,1.1-1.77,1.43v.04c.39.11.72.28.98.5.26.22.47.49.63.8.16.31.28.64.36,1.01.07.37.13.74.15,1.1.01.23.03.5.04.82.01.31.04.63.07.96.03.33.09.64.16.93.07.29.19.54.34.75h-3.21c-.18-.46-.29-1.01-.33-1.65-.04-.64-.1-1.25-.18-1.84-.11-.76-.34-1.32-.69-1.67-.35-.35-.93-.53-1.74-.53h-3.21v5.7h-3.21v-14.58h7.86ZM592.46,58.55c.74,0,1.29-.16,1.65-.49.37-.33.55-.86.55-1.59s-.18-1.22-.55-1.54c-.37-.32-.92-.48-1.65-.48h-3.51v4.11h3.51Z"/>
        <path class="cls-1" d="M591.41,76.78c-9.67,0-17.53-7.86-17.53-17.53s7.86-17.53,17.53-17.53,17.53,7.86,17.53,17.53-7.86,17.53-17.53,17.53ZM591.41,45.48c-7.59,0-13.77,6.18-13.77,13.77s6.18,13.77,13.77,13.77,13.77-6.18,13.77-13.77-6.18-13.77-13.77-13.77Z"/>
      </g>
    </g>
  </g>
</svg>