<?xml version="1.0" encoding="UTF-8"?>
<svg id="Layer_1" xmlns="http://www.w3.org/2000/svg" version="1.1" viewBox="0 0 72 35.1">
  <!-- Generator: Adobe Illustrator 30.1.0, SVG Export Plug-In . SVG Version: 2.1.1 Build 136)  -->
  <defs>
    <style>
      .st0 {
        fill: #fd5108;
      }
    </style>
  </defs>
  <path d="M53.3,14.8c-2.5.4-3.8,2.3-3.8,5.6s1.7,5.5,4.4,5.5,2.3-.4,4.7-1.6v2.7c-2.8,1.3-4.5,1.7-6.8,1.7s-4.2-.7-5.6-2.1c-1.5-1.5-2.2-3.4-2.2-5.5,0-4.7,3.5-8,8.6-8s5.8,1.6,5.8,3.8-1.1,2.5-2.7,2.5-1.5-.2-2.4-.7v-4h0ZM40.8,21.1c2.3-2.9,3.1-4,3.1-5.4s-1.1-2.5-2.6-2.5-1.7.4-2.1.9v5.8l-3.7,5v-11.3h-3.5l-5.9,9.8v-9.8h-2l-5.3,1.3v1.4l2.9.3v12h3.8l5.6-9.3v9.3h4.1l5.7-7.3h0ZM7.4,16.6c.9-.1,1.3-.2,1.7-.2,2.5,0,3.8,1.6,3.8,4.7s-1.6,5.5-4.7,5.5-.4,0-.8,0v-10h0ZM7.4,28.3c1,.1,1.9.2,2.5.2,5,0,8.2-3.2,8.2-8s-2.4-7.1-5.6-7.1-2.4.3-5.1,1.9v-2h-1.5l-5.9,1.8v1.4h2.4v16.7l-2.2.5v1.4h9.6v-1.4l-2.4-.5v-4.8h0Z"/>
  <path class="st0" d="M50.6,9h-16l2.7-4.5h16l-2.7,4.5ZM72,0h-16l-2.7,4.5h16S72,0,72,0Z"/>
</svg>